#!OML:ASF H:\Pregnant\Project 1\Capture day 1\Session 1\femalepreg.ASF
:FULLY-SPECIFIED
:DEGREES
530
root 6.40156 15.2722 23.3531 20.1196 -382.136 -359.706
lowerback -15.4967 -1.36695 -0.933682
upperback -7.16753 -1.77039 0.0464955
thorax 1.12255 -0.906987 0.289959
lowerneck -18.5244 -2.92233 -0.0625741
upperneck 25.5284 -5.08768 2.8721
head 11.4727 -1.97207 0.283887
rclavicle -1.51822e-014 -5.46658e-015
rhumerus -36.8951 -42.4871 6.26257
rradius 25.1
rwrist 16.9046
rhand -9.36596 -11.3846
rfingers 7.12502
rthumb 16.5941 -40.6951
lclavicle -1.51822e-014 -5.46658e-015
lhumerus -21.8138 38.5181 -2.67367
lradius 26.5816
lwrist 7.2095
lhand -17.709 2.11728
lfingers 7.12502
lthumb 8.55119 31.9241
rfemur -50.7647 43.0121 -8.45725
rtibia 46.7347
rfoot -23.5433 9.24381
rtoes 8.33436
lfemur -29.8549 -16.9206 -15.7499
ltibia 26.1587
lfoot -15.7935 0.474709
ltoes -9.45974
531
root 6.4595 15.286 23.3466 20.3082 -383.559 -359.803
lowerback -15.5224 -1.38286 -0.972272
upperback -7.18419 -1.79294 0.074669
thorax 1.12068 -0.919722 0.337063
lowerneck -18.512 -2.74322 0.106217
upperneck 25.5321 -4.89066 2.87351
head 11.4641 -1.86849 0.286141
rclavicle -2.03475e-014 1.11319e-014
rhumerus -37.0352 -42.709 6.34503
rradius 25.2394
rwrist 17.0094
rhand -8.99704 -11.6965
rfingers 7.12502
rthumb 16.9493 -40.977
lclavicle -2.03475e-014 1.11319e-014
lhumerus -21.7567 38.3995 -2.47955
lradius 26.6567
lwrist 7.324
lhand -17.506 2.1503
lfingers 7.12502
lthumb 8.74704 31.9491
rfemur -50.2922 41.8824 -7.53432
rtibia 46.7058
rfoot -23.4553 7.14342
rtoes 6.93053
lfemur -29.6187 -16.5312 -16.0391
ltibia 25.7822
lfoot -15.5824 1.26898
ltoes -8.48241
532
root 6.5164 15.3 23.3404 20.4984 -384.977 -359.893
lowerback -15.5588 -1.40347 -1.02592
upperback -7.20103 -1.81958 0.104346
thorax 1.12482 -0.9342 0.393284
lowerneck -18.4979 -2.55913 0.27856
upperneck 25.5423 -4.68912 2.87832
head 11.4581 -1.762 0.289634
rclavicle -7.06773e-014 2.80286e-014
rhumerus -37.1369 -42.8932 6.37493
rradius 25.435
rwrist 17.056
rhand -8.60497 -12.0428
rfingers 7.12502
rthumb 17.3267 -41.2905
lclavicle -7.06773e-014 2.80286e-014
lhumerus -21.7259 38.2322 -2.29228
lradius 26.7484
lwrist 7.51438
lhand -17.4058 2.27602
lfingers 7.12502
lthumb 8.84374 32.0707
rfemur -49.7583 40.6367 -6.49882
rtibia 46.6701
rfoot -23.2269 5.0402
rtoes 6.09216
lfemur -29.3872 -16.1565 -16.3258
ltibia 25.3938
lfoot -15.3674 2.0618
ltoes -7.42027
533
root 6.5718 15.3135 23.3348 20.682 -386.392 -359.962
lowerback -15.6052 -1.42981 -1.10925
upperback -7.21736 -1.84953 0.133377
thorax 1.13567 -0.949753 0.464729
lowerneck -18.5335 -2.37044 0.475798
upperneck 25.5929 -4.48685 2.86542
head 11.4767 -1.65356 0.281741
rclavicle -7.27831e-014 -1.09332e-014
rhumerus -37.2017 -43.025 6.35311
rradius 25.6935
rwrist 17.0157
rhand -8.1768 -12.4194
rfingers 7.12502
rthumb 17.7387 -41.6303
lclavicle -7.27831e-014 -1.09332e-014
lhumerus -21.7138 38.0277 -2.10802
lradius 26.8483
lwrist 7.77442
lhand -17.3609 2.41866
lfingers 7.12502
lthumb 8.8871 32.2115
rfemur -49.1667 39.2663 -5.36885
rtibia 46.6348
rfoot -22.8956 2.93137
rtoes 5.73713
lfemur -29.1517 -15.7766 -16.6255
ltibia 24.9803
lfoot -15.1469 2.81922
ltoes -6.35201
534
root 6.62532 15.3271 23.3296 20.8519 -387.801 -360.011
lowerback -15.6588 -1.45956 -1.22156
upperback -7.23473 -1.87978 0.161394
thorax 1.15007 -0.964893 0.551203
lowerneck -18.5453 -2.18611 0.669564
upperneck 25.6404 -4.29078 2.85687
head 11.4902 -1.54815 0.275382
rclavicle 2.74727e-014 -3.16068e-014
rhumerus -37.2362 -43.0985 6.28286
rradius 26.0177
rwrist 16.8664
rhand -7.75315 -12.8329
rfingers 7.12502
rthumb 18.1463 -42.0064
lclavicle 2.74727e-014 -3.16068e-014
lhumerus -21.7089 37.7867 -1.91718
lradius 26.9518
lwrist 8.08623
lhand -17.3649 2.5835
lfingers 7.12502
lthumb 8.88325 32.3765
rfemur -48.5218 37.7701 -4.15193
rtibia 46.6027
rfoot -22.4934 0.782858
rtoes 5.7128
lfemur -28.9002 -15.4002 -16.9333
ltibia 24.5311
lfoot -14.9194 3.53546
ltoes -5.28357
535
root 6.67737 15.3406 23.325 21.007 -389.205 -360.044
lowerback -15.7099 -1.4883 -1.35157
upperback -7.25736 -1.90629 0.187916
thorax 1.15803 -0.977808 0.646828
lowerneck -18.5662 -2.00444 0.879587
upperneck 25.7102 -4.10085 2.83279
head 11.5139 -1.44542 0.259491
rclavicle 2.45654e-014 -2.26615e-014
rhumerus -37.2338 -43.0886 6.15379
rradius 26.4125
rwrist 16.5559
rhand -7.34174 -13.2801
rfingers 7.12502
rthumb 18.5421 -42.4163
lclavicle 2.45654e-014 -2.26615e-014
lhumerus -21.7039 37.5257 -1.71912
lradius 27.047
lwrist 8.41557
lhand -17.4218 2.76784
lfingers 7.12502
lthumb 8.82831 32.5632
rfemur -47.8396 36.154 -2.87161
rtibia 46.5755
rfoot -22.0482 -1.42428
rtoes 5.88076
lfemur -28.6304 -15.0133 -17.2536
ltibia 24.0481
lfoot -14.6889 4.20961
ltoes -4.30385
536
root 6.72795 15.3544 23.321 21.1475 -390.601 -360.078
lowerback -15.7478 -1.5173 -1.48519
upperback -7.2825 -1.93298 0.220957
thorax 1.1568 -0.99057 0.751649
lowerneck -18.5581 -1.82025 1.07856
upperneck 25.7744 -3.9028 2.80764
head 11.5303 -1.34079 0.246618
rclavicle 6.77731e-015 1.45113e-014
rhumerus -37.1847 -43.0405 5.96982
rradius 26.8678
rwrist 16.1123
rhand -6.968 -13.7596
rfingers 7.12502
rthumb 18.9016 -42.8613
lclavicle 6.77731e-015 1.45113e-014
lhumerus -21.7185 37.2792 -1.5372
lradius 27.1234
lwrist 8.68058
lhand -17.45 2.91786
lfingers 7.12502
lthumb 8.80115 32.7143
rfemur -47.1339 34.4384 -1.53668
rtibia 46.5527
rfoot -21.5646 -3.70071
rtoes 6.20392
lfemur -28.3338 -14.6316 -17.571
ltibia 23.5371
lfoot -14.4561 4.88001
ltoes -3.57584
537
root 6.77696 15.3684 23.3178 21.2723 -391.987 -360.119
lowerback -15.7668 -1.54595 -1.61516
upperback -7.30815 -1.96013 0.260594
thorax 1.1453 -1.00343 0.861738
lowerneck -18.5108 -1.6336 1.25774
upperneck 25.8238 -3.69584 2.79116
head 11.5343 -1.23382 0.241967
rclavicle 1.35267e-014 -1.90833e-014
rhumerus -37.0844 -42.9332 5.71864
rradius 27.3874
rwrist 15.5253
rhand -6.64563 -14.2748
rfingers 7.12502
rthumb 19.2116 -43.3459
lclavicle 1.35267e-014 -1.90833e-014
lhumerus -21.7491 37.059 -1.37213
lradius 27.1818
lwrist 8.86838
lhand -17.4699 3.05642
lfingers 7.12502
lthumb 8.78192 32.8537
rfemur -46.42 32.6488 -0.173601
rtibia 46.5356
rfoot -21.0643 -6.01761
rtoes 6.7029
lfemur -28.0093 -14.2656 -17.8782
ltibia 23.0078
lfoot -14.2246 5.5645
ltoes -3.12988
538
root 6.82448 15.3822 23.3151 21.3881 -393.361 -360.174
lowerback -15.767 -1.57021 -1.73104
upperback -7.33255 -1.9838 0.303371
thorax 1.12497 -1.01465 0.968231
lowerneck -18.4368 -1.44716 1.4208
upperneck 25.862 -3.48506 2.78289
head 11.5296 -1.12622 0.243759
rclavicle 1.15211e-013 1.47101e-014
rhumerus -36.9563 -42.7939 5.42544
rradius 27.965
rwrist 14.8557
rhand -6.36731 -14.7958
rfingers 7.12502
rthumb 19.4792 -43.84
lclavicle 1.15211e-013 1.47101e-014
lhumerus -21.7795 36.8569 -1.21373
lradius 27.2232
lwrist 8.99868
lhand -17.5095 3.18043
lfingers 7.12502
lthumb 8.74371 32.9793
rfemur -45.717 30.8077 1.18977
rtibia 46.5247
rfoot -20.5862 -8.31767
rtoes 7.25382
lfemur -27.6652 -13.926 -18.1648
ltibia 22.4668
lfoot -13.9968 6.27325
ltoes -2.85228
